<?xml version="1.0" encoding="UTF-8"?>
<svg version="1.1" xmlns="http://www.w3.org/2000/svg" width="1688" height="914">
<path d="M0 0 C1.54722952 0.00138269 1.54722952 0.00138269 3.12571621 0.00279331 C4.30507244 0.00141865 5.48442867 0.00004398 6.69952297 -0.00137234 C8.00503109 0.00222294 9.31053921 0.00581821 10.65560818 0.00952244 C12.03504846 0.00980431 13.4144889 0.00964658 14.7939291 0.00907993 C18.54996147 0.00879195 22.30596218 0.01468878 26.06198716 0.02165389 C29.98312073 0.02788732 33.90425496 0.02849122 37.82539272 0.0296793 C45.25563639 0.03279265 52.68586542 0.04100608 60.11610264 0.05102879 C68.57303667 0.06218982 77.02997138 0.06770035 85.48691094 0.07272422 C102.88812254 0.08318869 120.28931987 0.1007882 137.69052029 0.12304783 C139.94005444 5.62441348 142.10558319 11.09805072 143.85922146 16.78173923 C144.23970638 18.00751179 144.62019131 19.23328434 145.01220608 20.49620152 C145.41935028 21.82232247 145.82644289 23.14845927 146.23348904 24.47461033 C146.67405218 25.89872557 147.1150123 27.32271805 147.5563345 28.74659824 C148.50351194 31.8050842 149.44822944 34.86431456 150.39099026 37.92416477 C151.90646391 42.84243195 153.42763435 47.75892506 154.95004177 52.67504978 C155.20967866 53.51349336 155.46931555 54.35193693 155.73682022 55.21578789 C156.26781757 56.93049034 156.79883407 58.64518686 157.32986927 60.35987759 C158.14266742 62.98496535 158.9549458 65.61021351 159.76713467 68.23548985 C163.49053344 80.26786624 167.23467721 92.29363297 170.99520779 104.31445408 C171.25339542 105.13978516 171.51158306 105.96511623 171.77759457 106.81545734 C173.0802583 110.97912997 174.3833265 115.14267589 175.68661404 119.3061533 C184.35633824 147.00292848 192.98155917 174.71300691 201.55570889 202.4395113 C208.64217267 225.35390549 215.79797363 248.24567279 223.00302029 271.12304783 C229.72538413 292.46781438 236.40407646 313.82465325 242.99291897 335.21112156 C251.135486 361.63567071 259.39520221 388.02348506 267.65294838 414.41221523 C268.91117977 418.43334557 270.16882391 422.45465767 271.42506313 426.47641087 C271.66617415 427.24829683 271.90728518 428.0201828 272.15570259 428.81545925 C272.63405281 430.34687845 273.11237114 431.8783076 273.59065628 433.40974712 C274.97841413 437.85116894 276.37167755 442.29081545 277.76968288 446.72902203 C278.62897289 449.45908893 279.4849886 452.19017519 280.34030056 454.92149067 C280.92445362 456.78279172 281.51299195 458.64271472 282.1016531 460.50259495 C282.44551052 461.60243717 282.78936794 462.7022794 283.14364529 463.83545017 C283.44431911 464.790434 283.74499294 465.74541782 284.0547781 466.72934055 C284.69052029 469.12304783 284.69052029 469.12304783 284.69052029 472.12304783 C246.41052029 472.12304783 208.13052029 472.12304783 168.69052029 472.12304783 C163.37263287 454.98763281 158.06240041 437.85709218 152.90536404 420.67382908 C152.31291673 418.70223515 151.72043233 416.73065236 151.12791348 414.75907993 C149.90962917 410.70401168 148.692421 406.64862231 147.47592068 402.59301853 C145.91523064 397.39061482 144.35068952 392.18937721 142.7852993 386.98838615 C141.57130825 382.95281166 140.35978828 378.91649856 139.14898777 374.87996578 C138.57213127 372.95829005 137.99438313 371.03688175 137.41572285 369.11574841 C136.61662264 366.46180729 135.82096862 363.80685732 135.02621365 361.15161228 C134.78788311 360.36279667 134.54955257 359.57398106 134.3039999 358.76126194 C132.69052029 353.35139764 132.69052029 353.35139764 132.69052029 351.12304783 C88.14052029 351.12304783 43.59052029 351.12304783 -2.30947971 351.12304783 C-3.62947971 356.73304783 -4.94947971 362.34304783 -6.30947971 368.12304783 C-7.11903533 371.28032691 -7.93640777 374.4270999 -8.7955637 377.57006931 C-9.01244846 378.37269199 -9.22933323 379.17531467 -9.45279026 380.00225925 C-10.15104002 382.58362104 -10.8532223 385.16389304 -11.55557346 387.74414158 C-12.05377388 389.58238192 -12.55173936 391.42068594 -13.04948521 393.25904942 C-14.3486704 398.05469521 -15.65130066 402.84939858 -16.95462132 407.64392185 C-18.00800144 411.5213539 -19.05885918 415.39946737 -20.10958862 419.27761841 C-21.38235957 423.97503442 -22.65632733 428.67212554 -23.93057346 433.36914158 C-24.16586702 434.23661959 -24.40116058 435.1040976 -24.64358425 435.99786282 C-25.97409971 440.90105374 -27.3086874 445.80310596 -28.64878559 450.70368671 C-29.10431335 452.37175991 -29.55853219 454.04019093 -30.01167774 455.70891285 C-30.69895277 458.23855579 -31.39057022 460.76697511 -32.08316135 463.29516697 C-32.29255313 464.06929904 -32.5019449 464.84343111 -32.71768188 465.64102173 C-34.19544468 471.0090128 -34.19544468 471.0090128 -35.30947971 472.12304783 C-36.75161971 472.21862819 -38.19842051 472.24493177 -39.64372349 472.24330235 C-40.57906925 472.24467701 -41.51441502 472.24605167 -42.47810459 472.24746799 C-44.02960964 472.24207508 -44.02960964 472.24207508 -45.61245823 472.23657322 C-46.69525059 472.23671925 -47.77804295 472.23686527 -48.89364719 472.23701572 C-52.49191346 472.23631606 -56.09012869 472.22852116 -59.68838596 472.22070408 C-62.1756039 472.21884009 -64.6628222 472.2174161 -67.15004063 472.21641636 C-73.03969162 472.21298133 -78.92932362 472.2050906 -84.81896681 472.19506687 C-92.17973345 472.18281029 -99.54050236 472.17742574 -106.90127659 472.17187595 C-120.0373537 472.16113598 -133.17341554 472.14424872 -146.30947971 472.12304783 C-145.72909025 467.43548611 -144.82835841 463.09654393 -143.43374729 458.58618259 C-143.24411191 457.96767272 -143.05447653 457.34916285 -142.85909462 456.71191025 C-142.22900956 454.66119874 -141.59150645 452.61287286 -140.95401096 450.56445408 C-140.50000987 449.09180311 -140.04650069 447.61900041 -139.59344578 446.14605808 C-138.61993511 442.98443035 -137.64321159 439.82382039 -136.66394138 436.6639719 C-135.09913808 431.61445139 -133.54165465 426.56269212 -131.9855051 421.510499 C-130.36847621 416.26159955 -128.7511268 411.01280103 -127.1314249 405.76472569 C-122.25725442 389.97046513 -117.42065868 374.16486818 -112.59594822 358.35543919 C-111.23591635 353.89894408 -109.87497079 349.44272834 -108.51382542 344.98657322 C-106.91771034 339.76106899 -105.32170297 334.53553192 -103.72594261 329.30991936 C-100.75607024 319.58456898 -97.78499154 309.85958749 -94.81338596 300.13476658 C-94.58639452 299.39191725 -94.35940308 298.64906792 -94.1255331 297.883708 C-92.97886553 294.13115725 -91.83218015 290.37861194 -90.68548679 286.62606907 C-88.62252916 279.87502989 -86.55972925 273.12394253 -84.49691677 266.372859 C-83.35111082 262.62291999 -82.20529476 258.87298406 -81.05947971 255.12304783 C-80.60114633 253.62304784 -80.142813 252.12304784 -79.68447971 250.62304783 C-71.43447971 223.62304783 -63.18447971 196.62304783 -54.93447971 169.62304783 C-54.70760062 168.8805343 -54.48072153 168.13802076 -54.24696732 167.37300682 C-53.78867563 165.87314342 -53.33038362 164.37328011 -52.87209129 162.8734169 C-51.72561808 159.12132781 -50.5791505 155.36923701 -49.43269444 151.61714268 C-47.37784124 144.89208704 -45.32295079 138.16704279 -43.26784515 131.44206429 C-42.13195549 127.72505702 -40.99609947 124.00803948 -39.86026096 120.29101658 C-39.63496519 119.55374018 -39.40966942 118.81646378 -39.1775465 118.05684566 C-36.06758581 107.87932454 -32.95918127 97.70132923 -29.85192966 87.52298069 C-28.1177923 81.842535 -26.38322054 76.16222198 -24.64855862 70.48193645 C-23.47568242 66.64114419 -22.3030384 62.80028142 -21.13101292 58.95922947 C-18.40334788 50.02026602 -15.67097452 41.08276526 -12.93032169 32.1477747 C-12.29027083 30.06040268 -11.65096649 27.97280287 -11.01168919 25.88519382 C-9.95624475 22.44008974 -8.89722401 18.9961032 -7.83556652 15.5529089 C-7.2478531 13.64440745 -6.66317726 11.73497144 -6.07856846 9.8255167 C-5.72849232 8.69288898 -5.37841618 7.56026127 -5.01773167 6.3933115 C-4.71075855 5.39563251 -4.40378544 4.39795353 -4.08751011 3.37004185 C-2.97551296 0.15853372 -2.97551296 0.15853372 0 0 Z M62.69052029 80.12304783 C62.36011745 81.55741184 62.36011745 81.55741184 62.02303982 83.02075291 C61.70648005 84.39469709 61.3899101 85.76863894 61.07333279 87.14257908 C60.90100124 87.89060795 60.7286697 88.63863682 60.55111599 89.40933323 C59.56549818 93.68617936 58.57821996 97.96263459 57.58846951 102.23852634 C55.6623836 110.56211875 53.74021309 118.88632617 51.85533047 127.21936131 C44.84495587 158.19693022 36.57264209 188.69153391 27.76864529 219.20117283 C27.44497132 220.32333604 27.44497132 220.32333604 27.11475849 221.46816921 C24.9269047 229.053257 22.73689835 236.63767154 20.53008747 244.21726894 C19.70075406 247.06775625 18.87445205 249.91911703 18.04868221 252.77063847 C17.65870989 254.11433026 17.26729416 255.45760406 16.87438107 256.80043888 C16.33268458 258.65212356 15.79625739 260.50534731 15.26010036 262.35864353 C14.95574566 263.40381641 14.65139095 264.4489893 14.33781338 265.52583408 C13.56960595 268.16209735 13.56960595 268.16209735 13.69052029 271.12304783 C47.68052029 271.12304783 81.67052029 271.12304783 116.69052029 271.12304783 C106.84140212 237.31211373 106.84140212 237.31211373 96.83553982 203.5561533 C87.84122299 173.35474743 80.13169342 142.85550665 72.52035427 112.28198338 C72.07670119 110.50275103 71.63304186 108.72352024 71.18937588 106.94429111 C70.35827104 103.61055861 69.53253744 100.27556167 68.71034145 96.93962193 C68.33748536 95.4387212 67.96451144 93.93784974 67.59139919 92.43701267 C67.42732287 91.76515777 67.26324656 91.09330286 67.09419823 90.40108871 C66.20605212 86.84570177 65.14234418 83.48881557 63.69052029 80.12304783 C63.36052029 80.12304783 63.03052029 80.12304783 62.69052029 80.12304783 Z " fill="#BC222F" transform="translate(1402.30947971344,266.8769521713257)"/>
<path d="M0 0 C1.07017868 -0.00701431 2.14035736 -0.01402863 3.2429657 -0.02125549 C6.68285359 -0.03868886 10.12256954 -0.04510877 13.5625 -0.046875 C15.32142075 -0.04788712 15.32142075 -0.04788712 17.11587524 -0.04891968 C33.79673973 -0.03363252 50.10252407 0.24576356 66.5625 3.203125 C67.59681152 3.38004883 68.63112305 3.55697266 69.69677734 3.73925781 C91.57817805 7.54329054 113.59382733 13.21878867 133.5625 23.203125 C132.92987237 28.34777717 131.85693542 33.23971186 130.46118164 38.23388672 C130.24966965 39.00383469 130.03815765 39.77378265 129.82023621 40.56706238 C129.12563062 43.0902718 128.4245295 45.6116158 127.72265625 48.1328125 C127.23547783 49.89156923 126.74845522 51.65036912 126.26158142 53.40921021 C125.24330455 57.08324069 124.2215033 60.75626987 123.19750977 64.42871094 C121.88319607 69.14436921 120.58029662 73.86309878 119.28028202 78.58271599 C118.27948912 82.20950192 117.27145836 85.83424589 116.26132011 89.45843887 C115.77753161 91.19853432 115.29632214 92.93934888 114.81770515 94.68087387 C114.15041438 97.10566909 113.47315493 99.52745739 112.79321289 101.94873047 C112.59625824 102.67284622 112.39930359 103.39696198 112.19638062 104.14302063 C111.71186976 105.84796329 111.14496159 107.52911224 110.5625 109.203125 C109.9025 109.533125 109.2425 109.863125 108.5625 110.203125 C106.23911245 109.27008693 104.01001571 108.27267976 101.75 107.203125 C80.56543315 97.61166817 57.7126061 91.47067526 34.5625 89.203125 C33.43070313 89.09226562 32.29890625 88.98140625 31.1328125 88.8671875 C5.57217239 86.722644 -21.96236453 87.58522292 -43.1875 103.890625 C-50.77562539 110.82050337 -55.47547069 120.48261691 -56.3984375 130.65234375 C-56.57830088 142.39742254 -52.51086582 152.70439893 -44.4375 161.203125 C-23.68471588 178.63771329 3.00864679 187.46963172 27.96875 197.0546875 C73.8395422 214.70530657 120.97416832 238.22366263 142.46923828 285.18408203 C156.89093589 318.55763587 156.28027865 358.42549537 143.5625 392.203125 C128.61890596 428.35284821 99.90679374 453.57602602 64.5625 469.203125 C48.42574036 475.67455089 31.68072206 480.25211485 14.5625 483.203125 C13.67127441 483.36538574 12.78004883 483.52764648 11.86181641 483.69482422 C-20.11542876 489.26282971 -56.50296831 488.80807277 -88.4375 483.203125 C-89.4790625 483.03151855 -90.520625 482.85991211 -91.59375 482.68310547 C-111.99429145 479.28605102 -131.83237248 474.08180064 -151.3125 467.140625 C-152.17327148 466.83664795 -153.03404297 466.5326709 -153.92089844 466.21948242 C-158.57939684 464.49906578 -162.90247643 462.47777115 -167.25048828 460.07250977 C-168.2262381 459.53449234 -169.20198792 458.99647491 -170.20730591 458.44215393 C-170.94326996 458.03327438 -171.67923401 457.62439484 -172.4375 457.203125 C-170.73447877 450.12409305 -169.03005727 443.0453996 -167.32406521 435.96708298 C-166.53108764 432.67677391 -165.73864818 429.38633763 -164.94702148 426.09570312 C-161.52079382 411.85484625 -158.06838739 397.62093549 -154.53515625 383.40625 C-154.23846542 382.2065155 -153.9417746 381.00678101 -153.63609314 379.77069092 C-153.36180984 378.67234924 -153.08752655 377.57400757 -152.80493164 376.44238281 C-152.56424454 375.47552551 -152.32355743 374.50866821 -152.07557678 373.51251221 C-151.4375 371.203125 -151.4375 371.203125 -150.4375 369.203125 C-145.36950254 369.84297237 -141.18036835 372.09966445 -136.625 374.265625 C-93.3476574 394.18909665 -35.03273875 407.25658466 11.2578125 390.58203125 C24.34335982 385.12198609 33.84674161 376.99779069 39.5625 363.9140625 C43.52983505 353.11833347 43.41308715 341.81092153 39.37109375 331.0234375 C27.01262075 304.55542721 -4.27105783 294.34949255 -29.81884766 284.96044922 C-32.07980032 284.13967681 -34.34094991 283.31944668 -36.60229492 282.49975586 C-84.51806928 265.09555672 -134.38371569 239.0568394 -157.0546875 190.7578125 C-169.74257776 161.73854997 -170.37414478 126.01994732 -159.30078125 96.39160156 C-153.56919565 81.86164304 -146.49720603 69.15690369 -136.4375 57.203125 C-135.99905762 56.67509277 -135.56061523 56.14706055 -135.10888672 55.60302734 C-105.64490899 20.47071992 -58.54037158 4.76570223 -14.22750854 0.41999817 C-9.48689445 0.05150037 -4.75302835 0.02082412 0 0 Z " fill="#BC222F" transform="translate(750.4375,259.796875)"/>
<path d="M0 0 C95.04 0 190.08 0 288 0 C288 29.04 288 58.08 288 88 C228.27 88 168.54 88 107 88 C107 123.31 107 158.62 107 195 C162.77 195 218.54 195 276 195 C276 223.71 276 252.42 276 282 C220.23 282 164.46 282 107 282 C107 344.7 107 407.4 107 472 C71.69 472 36.38 472 0 472 C0 316.24 0 160.48 0 0 Z " fill="#BC222F" transform="translate(47,267)"/>
<path d="M0 0 C120.12 0 240.24 0 364 0 C364 30.03 364 60.06 364 91 C321.43 91 278.86 91 235 91 C235 217.06 235 343.12 235 473 C199.69 473 164.38 473 128 473 C128 346.94 128 220.88 128 91 C85.76 91 43.52 91 0 91 C0 60.97 0 30.94 0 0 Z " fill="#BC222F" transform="translate(930,266)"/>
<path d="M0 0 C35.31 0 70.62 0 107 0 C107 155.76 107 311.52 107 472 C71.69 472 36.38 472 0 472 C0 316.24 0 160.48 0 0 Z " fill="#BC222F" transform="translate(407,267)"/>
<path d="M0 0 C1.60821192 1.4956621 3.21273951 2.99530167 4.8125 4.5 C5.41707031 5.02851563 6.02164063 5.55703125 6.64453125 6.1015625 C23.81321278 21.78255968 33.61425797 47.81242297 34.93505859 70.6159668 C36.0565921 101.08429378 26.98643615 128.56117907 6.15917969 151.07910156 C-10.33385709 168.48110919 -34.85930689 181.32371459 -59.10913086 182.66113281 C-85.95686807 183.03159497 -85.95686807 183.03159497 -98.1875 179.5 C-99.1775 179.23316406 -100.1675 178.96632812 -101.1875 178.69140625 C-127.52376682 170.81153918 -148.98043225 152.54031642 -162.34375 128.71875 C-175.01248731 105.17983315 -178.85803549 75.38881787 -171.51953125 49.4765625 C-166.90058471 35.06146682 -159.82576478 22.16085568 -150.1875 10.5 C-149.33091797 9.42298828 -149.33091797 9.42298828 -148.45703125 8.32421875 C-133.32689792 -9.83839332 -110.34272783 -21.625779 -87.1875 -25.5 C-86.22457031 -25.66628906 -86.22457031 -25.66628906 -85.2421875 -25.8359375 C-54.24457254 -30.19681869 -23.32292821 -20.66544314 0 0 Z M-64.1875 -15.5 C-64.1875 -0.65 -64.1875 14.2 -64.1875 29.5 C-48.4982176 28.78560959 -48.4982176 28.78560959 -33.1875 26.5 C-35.98203953 13.42669437 -43.58227612 -2.11667295 -54.1875 -10.5 C-57.4875 -12.15 -60.7875 -13.8 -64.1875 -15.5 Z M-88.125 -7.8125 C-95.01180103 -0.41556556 -106.1875 15.89635883 -106.1875 26.5 C-101.7712353 27.00359347 -97.35442737 27.50225489 -92.9375 28 C-91.68324219 28.14308594 -90.42898438 28.28617188 -89.13671875 28.43359375 C-87.93144531 28.56894531 -86.72617187 28.70429687 -85.484375 28.84375 C-84.37416992 28.96943359 -83.26396484 29.09511719 -82.12011719 29.22460938 C-79.01467336 29.56232984 -79.01467336 29.56232984 -75.1875 29.5 C-75.1875 14.65 -75.1875 -0.2 -75.1875 -15.5 C-79.42012762 -15.5 -85.08193214 -10.46291394 -88.125 -7.8125 Z M-137 12 C-139.58741502 14.32880289 -139.58741502 14.32880289 -140.1875 17.5 C-132.25038986 20.23981931 -124.44968593 22.90554307 -116.1875 24.5 C-115.65962891 22.99373047 -115.65962891 22.99373047 -115.12109375 21.45703125 C-110.87955918 9.60898223 -105.90534629 -1.44341241 -98.1875 -11.5 C-111.67689264 -11.5 -127.96946074 3.29984633 -137 12 Z M-40.1875 -10.5 C-39.75179687 -9.77296875 -39.31609375 -9.0459375 -38.8671875 -8.296875 C-32.58676256 2.30643984 -27.16009848 12.81980329 -23.1875 24.5 C-19.7496915 23.52191424 -16.31230729 22.54234559 -12.875 21.5625 C-11.89853516 21.28470703 -10.92207031 21.00691406 -9.91601562 20.72070312 C-8.97822266 20.45322266 -8.04042969 20.18574219 -7.07421875 19.91015625 C-6.21014404 19.66402588 -5.34606934 19.41789551 -4.45581055 19.16430664 C-2.68839822 18.64669509 -0.93464088 18.08238029 0.8125 17.5 C-5.49700191 3.75004772 -23.65898331 -5.32178449 -37.1875 -10.5 C-38.1775 -10.5 -39.1675 -10.5 -40.1875 -10.5 Z M-148.1875 25.5 C-152.82896026 32.82738143 -156.74861688 40.14911164 -159.5625 48.375 C-159.80049316 49.0438623 -160.03848633 49.71272461 -160.28369141 50.40185547 C-162.78480502 58.12158683 -163.1388178 65.11054237 -164.1875 73.5 C-150.6575 73.5 -137.1275 73.5 -123.1875 73.5 C-122.89875 69.66375 -122.61 65.8275 -122.3125 61.875 C-121.59878778 52.68446331 -120.71696452 43.59543264 -119.1875 34.5 C-125.08883535 32.23077983 -131.03172749 30.2088221 -137.0625 28.3125 C-137.91585937 28.03986328 -138.76921875 27.76722656 -139.6484375 27.48632812 C-140.463125 27.22916016 -141.2778125 26.97199219 -142.1171875 26.70703125 C-142.85179199 26.4747583 -143.58639648 26.24248535 -144.34326172 26.00317383 C-146.19047107 25.41226178 -146.19047107 25.41226178 -148.1875 25.5 Z M2.8984375 26.609375 C2.13660156 26.86976562 1.37476563 27.13015625 0.58984375 27.3984375 C-0.20292969 27.67945313 -0.99570312 27.96046875 -1.8125 28.25 C-3.3671875 28.78645833 -4.921875 29.32291667 -6.4765625 29.859375 C-7.24516602 30.12814453 -8.01376953 30.39691406 -8.80566406 30.67382812 C-12.58747001 31.98559845 -16.38707596 33.24338079 -20.1875 34.5 C-20.10185791 35.08789307 -20.01621582 35.67578613 -19.92797852 36.28149414 C-18.363765 47.11269573 -16.90434604 57.85961409 -16.3984375 68.796875 C-16.36059789 71.46736535 -16.36059789 71.46736535 -15.1875 73.5 C-1.9875 73.5 11.2125 73.5 24.8125 73.5 C22.83412648 58.66219864 20.15661382 46.77856969 13.6875 33.5625 C13.35089355 32.86970947 13.01428711 32.17691895 12.66748047 31.46313477 C10.11592838 26.48300455 8.34557307 24.70990071 2.8984375 26.609375 Z M-109.1875 36.5 C-112.01399936 49.15702859 -113.1875 59.2890033 -113.1875 72.5 C-100.6475 72.5 -88.1075 72.5 -75.1875 72.5 C-75.1875 61.61 -75.1875 50.72 -75.1875 39.5 C-81.931875 38.7575 -81.931875 38.7575 -88.8125 38 C-90.21967285 37.84337891 -91.6268457 37.68675781 -93.07666016 37.52539062 C-94.19862793 37.40357422 -95.3205957 37.28175781 -96.4765625 37.15625 C-97.61818848 37.03056641 -98.75981445 36.90488281 -99.93603516 36.77539062 C-103.03887634 36.51258804 -106.07544051 36.4505368 -109.1875 36.5 Z M-41.92382812 37.70117188 C-49.35537176 38.61239657 -56.66971452 38.9988143 -64.1875 39.5 C-64.1875 50.72 -64.1875 61.94 -64.1875 73.5 C-51.3175 73.5 -38.4475 73.5 -25.1875 73.5 C-26.36488652 54.78346126 -26.36488652 54.78346126 -30.1875 36.5 C-34.10916797 36.5 -38.035541 37.20077267 -41.92382812 37.70117188 Z M-164.1875 83.5 C-162.79132403 96.41935896 -162.79132403 96.41935896 -159.5625 108.625 C-159.31032715 109.36218262 -159.0581543 110.09936523 -158.79833984 110.85888672 C-156.12434939 118.30339165 -152.33515625 124.77793643 -148.1875 131.5 C-138.6175 128.53 -129.0475 125.56 -119.1875 122.5 C-120.07940084 116.77296669 -120.07940084 116.77296669 -120.98193359 111.04760742 C-122.38324069 101.87532763 -123.21178617 92.76928137 -124.1875 83.5 C-137.3875 83.5 -150.5875 83.5 -164.1875 83.5 Z M-113.1875 83.5 C-113.28653258 96.03521538 -113.28653258 96.03521538 -111.8125 108.1875 C-111.68617188 108.94482422 -111.55984375 109.70214844 -111.4296875 110.48242188 C-110.79075686 114.10835325 -110.1108981 117.33057443 -108.1875 120.5 C-106.60775391 120.30083984 -106.60775391 120.30083984 -104.99609375 120.09765625 C-96.32209568 119.0285779 -87.69771891 118.19537891 -78.96875 117.74609375 C-76.28176911 117.80827956 -76.28176911 117.80827956 -75.1875 116.5 C-75.0990717 114.05196233 -75.07214028 111.63155206 -75.08984375 109.18359375 C-75.09085083 108.53588013 -75.09185791 107.8881665 -75.09289551 107.2208252 C-75.09814157 104.79303221 -75.11210275 102.36526439 -75.125 99.9375 C-75.145625 94.513125 -75.16625 89.08875 -75.1875 83.5 C-87.7275 83.5 -100.2675 83.5 -113.1875 83.5 Z M-65.1875 83.5 C-65.1875 94.72 -65.1875 105.94 -65.1875 117.5 C-57.41049106 118.11431094 -57.41049106 118.11431094 -49.63330078 118.72631836 C-43.14268977 119.24229289 -36.66298283 119.81947896 -30.1875 120.5 C-27.53937778 107.85896375 -26.1875 96.59003332 -26.1875 83.5 C-39.0575 83.5 -51.9275 83.5 -65.1875 83.5 Z M-16.1875 83.5 C-16.47625 86.965 -16.765 90.43 -17.0625 94 C-17.87479 103.53625748 -18.89374496 113.01705084 -20.1875 122.5 C-16.48109533 123.6521362 -12.77206376 124.79558007 -9.0625 125.9375 C-8.01578125 126.26298828 -6.9690625 126.58847656 -5.890625 126.92382812 C-4.87226562 127.23642578 -3.85390625 127.54902344 -2.8046875 127.87109375 C-1.87253418 128.15911865 -0.94038086 128.44714355 0.02001953 128.74389648 C2.9358043 129.53338638 5.8269102 130.05119844 8.8125 130.5 C17.95047157 115.57993724 23.8125 101.25500557 23.8125 83.5 C10.6125 83.5 -2.5875 83.5 -16.1875 83.5 Z M-95.75 128.375 C-96.77577148 128.49294922 -96.77577148 128.49294922 -97.82226562 128.61328125 C-101.302557 129.05641335 -103.21349109 129.51732739 -106.1875 131.5 C-100.16489507 147.3846205 -93.27170898 163.61558383 -77.1875 171.5 C-76.5275 171.5 -75.8675 171.5 -75.1875 171.5 C-75.1875 156.98 -75.1875 142.46 -75.1875 127.5 C-85.54776131 127.47625856 -85.54776131 127.47625856 -95.75 128.375 Z M-64.1875 127.5 C-64.1875 142.02 -64.1875 156.54 -64.1875 171.5 C-57.75067959 169.3543932 -54.88978592 167.08852094 -50.1875 162.5 C-49.671875 162.02046875 -49.15625 161.5409375 -48.625 161.046875 C-40.95647978 153.12829434 -36.16967544 140.93761404 -33.1875 130.5 C-43.78918102 128.22030659 -53.18455658 127.5 -64.1875 127.5 Z M-23.1875 132.5 C-23.39318604 133.01272461 -23.59887207 133.52544922 -23.81079102 134.05371094 C-27.6206687 143.48809615 -31.44430302 152.59746998 -36.83984375 161.25 C-38.32008703 163.53745715 -38.32008703 163.53745715 -39.1875 166.5 C-23.60337522 164.63920898 -9.46285091 151.47594302 0.8125 140.5 C0.00429022 138.33477017 0.00429022 138.33477017 -2.08935547 137.72216797 C-2.90291504 137.48127441 -3.71647461 137.24038086 -4.5546875 136.9921875 C-5.44027344 136.72792969 -6.32585937 136.46367187 -7.23828125 136.19140625 C-8.17027344 135.92199219 -9.10226562 135.65257812 -10.0625 135.375 C-11.44888672 134.95927734 -11.44888672 134.95927734 -12.86328125 134.53515625 C-17.94087289 132.99338137 -17.94087289 132.99338137 -23.1875 132.5 Z M-123.85546875 133.8125 C-125.19448242 134.21855469 -125.19448242 134.21855469 -126.56054688 134.6328125 C-127.48931641 134.91898438 -128.41808594 135.20515625 -129.375 135.5 C-130.78555664 135.92925781 -130.78555664 135.92925781 -132.22460938 136.3671875 C-134.54672836 137.07443186 -136.86760412 137.78550374 -139.1875 138.5 C-139.1875 142.68174221 -136.94575529 144.62329766 -134.1875 147.5 C-127.45692092 153.54790606 -120.15758565 158.32355056 -112.1875 162.5625 C-111.46981445 162.94446533 -110.75212891 163.32643066 -110.01269531 163.7199707 C-106.42573537 165.56113614 -103.23917589 166.98562708 -99.1875 167.5 C-99.7546875 166.51515625 -100.321875 165.5303125 -100.90625 164.515625 C-106.7982113 154.19431955 -112.66460532 143.90629537 -116.1875 132.5 C-119.13327561 132.5 -121.06226621 132.95852725 -123.85546875 133.8125 Z " fill="#FFFFFF" transform="translate(535.1875,26.5)"/>
</svg>
