<?xml version="1.0" encoding="UTF-8"?>
<svg version="1.1" xmlns="http://www.w3.org/2000/svg" width="7032" height="3668">
<path d="M0 0 C192.06 0 384.12 0 582 0 C585.37468372 7.87426201 585.37468372 7.87426201 586.61206055 11.89697266 C586.8957399 12.81231277 587.17941925 13.72765289 587.47169495 14.67073059 C587.92463173 16.15242989 587.92463173 16.15242989 588.38671875 17.6640625 C588.71610947 18.73013229 589.04550018 19.79620209 589.38487244 20.89457703 C590.10622939 23.23061226 590.82586666 25.56717904 591.54400635 27.90420532 C592.7170998 31.72131429 593.8945788 35.53705445 595.07373047 39.35229492 C595.27780014 40.0126282 595.48186981 40.67296148 595.69212341 41.35330486 C596.11278745 42.71448923 596.5334648 44.07566949 596.95415497 45.43684578 C597.60645008 47.54799238 598.25826081 49.65928805 598.90997314 51.77061462 C603.86501442 67.8197663 608.86701651 83.85424643 613.86901093 99.88881302 C615.14239102 103.97124602 616.41517794 108.05386394 617.68798828 112.13647461 C619.75808755 118.77627093 621.8283885 125.41600432 623.89892578 132.05566406 C624.28412825 133.2909071 624.28412825 133.2909071 624.67711258 134.55110455 C625.19432048 136.20965264 625.71152858 137.86820068 626.22873688 139.52674866 C630.2571218 152.44478938 634.28511162 165.36295324 638.31238174 178.28134155 C638.81301975 179.88724082 639.31366827 181.49313681 639.81432724 183.09902954 C645.46455222 201.22251268 651.11065159 219.34726233 656.7421875 237.4765625 C656.97742882 238.23384895 657.21267014 238.99113541 657.45503998 239.77136993 C659.35292955 245.8811703 661.25064937 251.9910234 663.14822388 258.10092163 C671.18739885 283.98537403 679.26463011 309.85778627 687.35651779 335.72580338 C694.94101544 359.97259329 702.49118026 384.22967001 710 408.5 C717.75155823 433.55426673 725.5467107 458.59460086 733.375 483.625 C733.63608929 484.45983036 733.89717857 485.29466072 734.16617966 486.15478897 C734.95769782 488.68563469 735.74923171 491.21647549 736.54077148 493.74731445 C737.33237024 496.27834348 738.12396653 498.80937328 738.91555214 501.34040642 C739.44337289 503.02806849 739.97120365 504.71572744 740.49904442 506.40338326 C746.3655629 525.16100599 752.21590649 543.92365871 758.0625 562.6875 C758.30886326 563.47815228 758.55522652 564.26880455 758.80905533 565.08341599 C761.04655458 572.26423418 763.28395108 579.44508439 765.52116394 586.62599182 C768.77149801 597.05856783 772.02334717 607.49067059 775.27623367 617.92245102 C792.17598972 672.11910959 792.17598972 672.11910959 799.7421875 696.4765625 C799.97742882 697.23384895 800.21267014 697.99113541 800.45503998 698.77136993 C802.35292955 704.8811703 804.25064937 710.9910234 806.14822388 717.10092163 C814.18739885 742.98537403 822.26463011 768.85778627 830.35651779 794.72580338 C837.94101544 818.97259329 845.49118026 843.22967001 853 867.5 C860.75155823 892.55426673 868.5467107 917.59460086 876.375 942.625 C876.76663393 943.87724554 876.76663393 943.87724554 877.16617966 945.15478897 C877.95769782 947.68563469 878.74923171 950.21647549 879.54077148 952.74731445 C880.33237024 955.27834348 881.12396653 957.80937328 881.91555214 960.34040642 C882.44337289 962.02806849 882.97120365 963.71572744 883.49904442 965.40338326 C889.3655629 984.16100599 895.21590649 1002.92365871 901.0625 1021.6875 C901.30886326 1022.47815228 901.55522652 1023.26880455 901.80905533 1024.08341599 C904.04655458 1031.26423418 906.28395108 1038.44508439 908.52116394 1045.62599182 C911.77149801 1056.05856783 915.02334717 1066.49067059 918.27623367 1076.92245102 C935.17598972 1131.11910959 935.17598972 1131.11910959 942.7421875 1155.4765625 C942.97742882 1156.23384895 943.21267014 1156.99113541 943.45503998 1157.77136993 C945.35292955 1163.8811703 947.25064937 1169.9910234 949.14822388 1176.10092163 C957.1867985 1201.98344103 965.26317254 1227.85400209 973.35473251 1253.72000122 C981.254603 1278.97381354 989.11288802 1304.2401182 996.93251419 1329.51888657 C1003.74084043 1351.52763124 1010.59754461 1373.52059887 1017.5 1395.5 C1024.63311846 1418.21389864 1031.71424267 1440.94325569 1038.75 1463.6875 C1046.58456224 1489.01270997 1054.46185816 1514.32423142 1062.375 1539.625 C1062.90213028 1541.31046545 1063.42926041 1542.99593094 1063.95639038 1544.68139648 C1064.48419088 1546.36897818 1065.0119924 1548.05655956 1065.53979492 1549.74414062 C1066.33163609 1552.27595459 1067.123474 1554.80776957 1067.91530037 1557.33958817 C1068.44322701 1559.02759767 1068.97116459 1560.71560375 1069.49911308 1562.40360641 C1075.36560918 1581.16115461 1081.21592964 1599.92373301 1087.0625 1618.6875 C1087.30886326 1619.47815228 1087.55522652 1620.26880455 1087.80905533 1621.08341599 C1090.04655458 1628.26423418 1092.28395108 1635.44508439 1094.52116394 1642.62599182 C1097.77149801 1653.05856783 1101.02334717 1663.49067059 1104.27623367 1673.92245102 C1121.17598972 1728.11910959 1121.17598972 1728.11910959 1128.7421875 1752.4765625 C1128.97742882 1753.23384895 1129.21267014 1753.99113541 1129.45503998 1754.77136993 C1131.35292955 1760.8811703 1133.25064937 1766.9910234 1135.14822388 1773.10092163 C1142.40081129 1796.45272755 1149.68166758 1819.79556432 1156.98144531 1843.13265991 C1165.33584184 1869.84189901 1173.67833669 1896.55479945 1181.97311401 1923.28262329 C1182.9405187 1926.39976376 1183.90890753 1929.51659559 1184.87820435 1932.63314819 C1186.00363121 1936.25200495 1187.12686492 1939.87153501 1188.24835587 1943.49161339 C1188.84993575 1945.43176353 1189.45360126 1947.3712666 1190.05734253 1949.31074524 C1190.41796783 1950.47663681 1190.77859314 1951.64252838 1191.15014648 1952.84375 C1191.61661842 1954.34711914 1191.61661842 1954.34711914 1192.09251404 1955.88085938 C1193.16273264 1959.55933207 1194.07084703 1963.28338811 1195 1967 C1036.6 1967 878.2 1967 715 1967 C709.98256935 1951.32052922 705.03095893 1935.65479849 700.34375 1919.87890625 C699.72637329 1917.80834885 699.10872962 1915.73787102 698.49084473 1913.66746521 C697.17689744 1909.26346166 695.86426705 1904.85906893 694.55273438 1900.4543457 C690.98981943 1888.48968635 687.41684236 1876.52802942 683.84375 1864.56640625 C683.47643768 1863.33653614 683.10912537 1862.10666603 682.73068237 1860.83952713 C675.20185324 1835.63442959 667.60431128 1810.4503276 659.98928833 1785.27116013 C648.92907299 1748.69968312 637.93188183 1712.1100434 627 1675.5 C614.45347918 1633.4828638 601.81749242 1591.49332488 589.12471962 1549.52014351 C586.68677562 1541.45767927 584.25135813 1533.39445427 581.81767845 1525.33070183 C580.17920575 1519.90248474 578.53866227 1514.47490319 576.89532471 1509.04815674 C575.12221033 1503.19248215 573.35320159 1497.33558083 571.58685493 1491.4778614 C570.91095637 1489.23896801 570.23361093 1487.00051085 569.55476189 1484.7625103 C568.61805046 1481.67362367 567.68646314 1478.58323631 566.75610352 1475.49243164 C566.33515128 1474.11079299 566.33515128 1474.11079299 565.90569496 1472.70124245 C565.65298521 1471.8579759 565.40027546 1471.01470936 565.13990784 1470.14588928 C564.91848901 1469.41342011 564.69707018 1468.68095095 564.46894169 1467.92628574 C564 1466 564 1466 564 1463 C377.22 1463 190.44 1463 -2 1463 C-2.66 1466.3 -3.32 1469.6 -4 1473 C-4.76333488 1476.04240912 -5.54704876 1479.06796357 -6.37231445 1482.09301758 C-6.60271927 1482.94797727 -6.83312408 1483.80293695 -7.07051086 1484.68380451 C-7.83163961 1487.50490248 -8.59741945 1490.32471486 -9.36328125 1493.14453125 C-9.90767072 1495.1582024 -10.45178763 1497.17194726 -10.99565125 1499.1857605 C-12.45864289 1504.59941721 -13.92580723 1510.01193487 -15.39385986 1515.42422104 C-16.63172986 1519.98993582 -17.86715968 1524.55630944 -19.10260201 1529.12268162 C-26.97556577 1558.22120684 -34.88594639 1587.30948173 -42.83069801 1616.38848209 C-51.42278528 1647.83830667 -59.95780347 1679.30358495 -68.49142504 1710.76931047 C-71.52909794 1721.96993461 -74.56697928 1733.17050222 -77.60500884 1744.37102962 C-77.98310016 1745.76496715 -78.36118894 1747.15890538 -78.73927522 1748.55284429 C-86.13302427 1775.81219696 -93.53759172 1803.06860113 -100.94867706 1830.323246 C-101.80750593 1833.48163405 -102.666301 1836.64003128 -103.52508545 1839.7984314 C-105.73834047 1847.93822131 -107.95163352 1856.07800089 -110.16500854 1864.21775818 C-115.51815898 1883.90436254 -120.86935353 1903.59149799 -126.21810913 1923.27929688 C-127.18798493 1926.84917456 -128.15806128 1930.41899765 -129.12832642 1933.98876953 C-130.24000874 1938.07885124 -131.35131703 1942.16903438 -132.46231461 1946.25930214 C-132.86531012 1947.74272694 -133.26844133 1949.22611489 -133.6717186 1950.70946312 C-134.21861325 1952.72116494 -134.76501105 1954.73300105 -135.3112793 1956.74487305 C-135.61543259 1957.8642778 -135.91958588 1958.98368256 -136.23295593 1960.13700867 C-136.84428921 1962.4188096 -137.42706412 1964.70825648 -138 1967 C-290.79 1967 -443.58 1967 -601 1967 C-599.00841358 1959.69751648 -596.96828442 1952.44282886 -594.76171875 1945.20703125 C-594.44905563 1944.17734222 -594.13639252 1943.1476532 -593.81425476 1942.08676147 C-592.77363104 1938.66151039 -591.73063256 1935.2369878 -590.6875 1931.8125 C-589.93498654 1929.33831944 -589.18254715 1926.86411635 -588.43017578 1924.38989258 C-585.9569198 1916.25887064 -583.47898281 1908.12927751 -581 1900 C-580.7879467 1899.30458603 -580.5758934 1898.60917206 -580.35741425 1897.89268494 C-568.95906332 1860.51413607 -557.51717426 1823.14896839 -546.05490112 1785.78997803 C-539.00187527 1762.80172207 -531.96212864 1739.8094496 -524.9375 1716.8125 C-524.71148102 1716.07256805 -524.48546204 1715.33263611 -524.25259399 1714.57028198 C-522.20127176 1707.85459472 -520.15018614 1701.1388352 -518.09933472 1694.42300415 C-514.90182375 1683.95228067 -511.70326426 1673.48187801 -508.50390625 1663.01171875 C-508.27691481 1662.26886942 -508.04992336 1661.52602009 -507.81605339 1660.76066017 C-506.66938582 1657.00810942 -505.52270044 1653.25556411 -504.37600708 1649.50302124 C-502.31304945 1642.75198207 -500.25024953 1636.0008947 -498.18743706 1629.24981117 C-497.0416311 1625.49987216 -495.89581504 1621.74993624 -494.75 1618 C-494.29166662 1616.50000001 -493.83333328 1615.00000001 -493.375 1613.5 C-470.6875 1539.25 -448 1465 -270.625 884.5 C-270.39812531 883.75750094 -270.17125063 883.01500189 -269.93750095 882.25000286 C-269.47916464 880.74999327 -269.02082812 879.24998373 -268.56249142 877.74997425 C-267.41670217 874.00012155 -266.27091628 870.25026783 -265.12513733 866.50041199 C-263.06211455 859.7486519 -260.99906814 852.99689903 -258.93589497 846.2451849 C-257.78927781 842.4928888 -256.64268052 838.74058663 -255.49609375 834.98828125 C-255.26909727 834.24541681 -255.04210079 833.50255238 -254.80822563 832.7371769 C-251.61050615 822.27223965 -248.41389725 811.8069637 -245.21799088 801.34147263 C-235.42370657 769.26920088 -225.61318593 737.20198996 -215.77671051 705.14263153 C-208.48292327 681.37020528 -201.20176589 657.5939645 -193.9375 633.8125 C-193.71148102 633.07256805 -193.48546204 632.33263611 -193.25259399 631.57028198 C-191.20127176 624.85459472 -189.15018614 618.1388352 -187.09933472 611.42300415 C-183.90182375 600.95228067 -180.70326426 590.48187801 -177.50390625 580.01171875 C-177.27691481 579.26886942 -177.04992336 578.52602009 -176.81605339 577.76066017 C-175.66938582 574.00810942 -174.52270044 570.25556411 -173.37600708 566.50302124 C-171.31304945 559.75198207 -169.25024953 553.0008947 -167.18743706 546.24981117 C-166.0416311 542.49987216 -164.89581504 538.74993624 -163.75 535 C-163.29166662 533.50000001 -162.83333328 532.00000001 -162.375 530.5 C-139.6875 456.25 -117 382 -49.625 161.5 C-49.39812028 160.75748426 -49.17124056 160.01496853 -48.93748569 159.24995232 C-48.47920069 157.75011106 -48.02091504 156.25027001 -47.56262875 154.75042915 C-46.41605067 150.99800192 -45.26948385 147.24557125 -44.12294006 143.49313354 C-42.06934496 136.77211391 -40.01567603 130.05111688 -37.96157551 123.33025169 C-36.82719162 119.6186226 -35.69287518 115.9069729 -34.55859375 112.1953125 C-34.22101453 111.09067343 -34.22101453 111.09067343 -33.87661552 109.96371841 C-30.74518936 99.71648685 -27.61691577 89.46829714 -24.49087524 79.21942139 C-22.7396984 73.47815403 -20.98766652 67.73714769 -19.23545265 61.99619675 C-17.81944251 57.35650333 -16.40453902 52.7164745 -14.99053288 48.07616997 C-14.10933388 45.18538218 -13.22701288 42.29493767 -12.34441948 39.40457535 C-11.75728922 37.48067248 -11.17145814 35.55637326 -10.58570862 33.63204956 C-7.15061791 22.38929669 -3.56531236 11.20526741 0 0 Z M270 333 C268.19360919 338.04429721 266.99205654 343.12203342 265.84301758 348.34375 C265.63532966 349.27539632 265.42764174 350.20704264 265.21366024 351.16692066 C264.52101118 354.27730141 263.83281558 357.38865074 263.14453125 360.5 C262.65039287 362.72245505 262.15593961 364.94484011 261.66119385 367.16716003 C260.59914853 371.93996282 259.53890011 376.71315983 258.48001099 381.48666382 C255.9361472 392.95268224 253.38079855 404.41614397 250.82664299 415.87987328 C250.0946737 419.16523112 249.36297753 422.45064973 248.63135153 425.73608404 C230.92789829 505.23288156 213.00353421 584.67360489 193.88074875 663.84260559 C193.38951877 665.87736085 192.89926676 667.91234955 192.40921021 669.9473877 C184.81235744 701.44441515 176.1859863 732.58502759 167.15158081 763.69296265 C164.01807767 774.48287563 160.89841474 785.27679836 157.77734375 796.0703125 C157.45372675 797.18913755 157.13010975 798.30796261 156.79668617 799.46069145 C150.09225926 822.64189671 143.45336987 845.8415761 136.83341217 869.04702377 C134.05522369 878.78551731 131.27590808 888.52368919 128.49609375 898.26171875 C128.17316849 899.39301271 127.85024323 900.52430668 127.51753235 901.68988228 C121.37097362 923.22051376 115.2053865 944.74567379 109.03515625 966.26953125 C108.79761021 967.09817491 108.56006418 967.92681858 108.31531978 968.78057265 C103.78388953 984.5875162 99.25117327 1000.39409096 94.71798706 1016.20053101 C94.49166192 1016.98968916 94.26533678 1017.77884732 94.03215331 1018.59191936 C92.21175815 1024.93932323 92.21175815 1024.93932323 91.32335007 1028.03696501 C88.93994872 1036.34728017 86.55689448 1044.65769451 84.17506409 1052.96846008 C83.96878889 1053.68819573 83.76251369 1054.40793137 83.54998773 1055.14947718 C82.73260072 1058.00154038 81.91522277 1060.85360617 81.0979203 1063.7056936 C78.62409169 1072.33833827 76.14730945 1080.97012515 73.66680145 1089.60085297 C72.32493451 1094.27125164 70.98509258 1098.94222947 69.64576721 1103.61335754 C69.03411179 1105.74480347 68.42153181 1107.87598432 67.80796814 1110.00688171 C66.98352844 1112.87044703 66.16225309 1115.73490066 65.34179688 1118.59960938 C65.10074219 1119.4337738 64.8596875 1120.26793823 64.61132812 1121.12738037 C63.42823534 1125.00143093 63.42823534 1125.00143093 63 1129 C205.89 1129 348.78 1129 496 1129 C492.56933116 1115.25838509 492.56933116 1115.25838509 488.72929382 1101.64328003 C488.53451635 1100.9895126 488.33973888 1100.33574516 488.13905907 1099.6621666 C487.93719301 1098.98474537 487.73532696 1098.30732414 487.52734375 1097.609375 C487.09182958 1096.13828795 486.65664457 1094.66710341 486.22175598 1093.1958313 C485.28807172 1090.03916272 484.35241362 1086.88308898 483.41516113 1083.72747803 C481.89650136 1078.61382906 480.38280059 1073.4987204 478.87011719 1068.38330078 C478.47967381 1067.06297442 478.47967381 1067.06297442 478.0813427 1065.71597481 C477.54759158 1063.91098057 477.01385903 1062.10598085 476.4801445 1060.3009758 C475.66036708 1057.52898325 474.84018158 1054.75711169 474.01992798 1051.98526001 C468.18040836 1032.24826312 462.38453597 1012.49850121 456.59244537 992.74754333 C455.17831313 987.92568037 453.76368929 983.10396164 452.34912109 978.28222656 C450.05589678 970.46524422 447.76296484 962.64817616 445.47021484 954.83105469 C439.95566496 936.0294088 434.43886498 917.22842311 428.92161179 898.42757034 C428.06337402 895.50297838 427.2051631 892.57837855 426.34695435 889.65377808 C419.74181422 867.1451782 413.13234128 844.63786543 406.51020336 822.13426018 C405.09959781 817.34000136 403.69112269 812.54511986 402.28344727 807.75 C401.48470754 805.02989803 400.68577908 802.30985156 399.88671875 799.58984375 C399.68939463 798.91808987 399.4920705 798.24633598 399.28876686 797.55422592 C396.53489714 788.1824121 393.75723981 778.81790209 390.96554565 769.45729065 C377.60740585 724.66164231 365.20094318 679.68797432 353.61457062 634.40194702 C353.00467331 632.01826484 352.39419828 629.6347312 351.78363037 627.2512207 C345.38502956 602.26372445 339.08396172 577.25187361 332.81059265 552.23268127 C331.95970096 548.83928554 331.10858162 545.44594694 330.25744629 542.0526123 C302.54350759 431.55191551 302.54350759 431.55191551 290.13378906 380.80322266 C286.22404166 364.83246511 282.17022403 348.90471412 278 333 C275.36 333 272.72 333 270 333 Z " fill="#BC222F" transform="translate(5834,971)"/>
<path d="M0 0 C0.67190369 0.29164032 1.34380737 0.58328064 2.03607178 0.88375854 C3.95371324 1.71884901 5.86804351 2.561055 7.78125 3.40625 C9.40643555 4.12264648 9.40643555 4.12264648 11.06445312 4.85351562 C15.31506278 6.89061849 19.40372514 9.17118707 23.5 11.5 C17.69728722 33.68287729 11.682746 55.79682879 5.46575546 77.86694717 C3.62029616 84.42255375 1.78190427 90.98014987 -0.05814934 97.53727531 C-0.77509644 100.09184852 -1.49233555 102.64633961 -2.20960999 105.20082092 C-7.04280589 122.41709994 -11.84040374 139.64324419 -16.63319397 156.87080765 C-18.70028067 164.30072811 -20.76804782 171.73045924 -22.8359375 179.16015625 C-23.06643799 179.98836065 -23.29693848 180.81656506 -23.53442383 181.66986656 C-27.15448952 194.67625418 -30.78213189 207.68051466 -34.4140625 220.68359375 C-34.91475033 222.47625191 -35.41543697 224.2689104 -35.91612244 226.06156921 C-36.6698633 228.76023389 -37.42360614 231.45889801 -38.17735195 234.1575613 C-50.67986234 278.92133633 -63.10691875 323.70581366 -75.5 368.5 C-79.4124696 367.22337711 -83.05011235 365.84079569 -86.7265625 363.98828125 C-164.75235151 325.25154578 -250.19626565 300.44742806 -628.48266602 296.38500977 C-658.00383877 306.4895388 -686.9217476 320.82658829 -710.5 341.5 C-711.33660156 342.22703125 -712.17320312 342.9540625 -713.03515625 343.703125 C-715.5582252 345.93372073 -718.03584826 348.20457203 -720.5 350.5 C-721.28890625 351.22316406 -722.0778125 351.94632813 -722.890625 352.69140625 C-750.95342544 379.44159183 -768.63973984 418.40416024 -769.71875 457.140625 C-769.97599818 471.83105498 -769.45108018 486.08747535 -766.5 500.5 C-766.33902832 501.28987305 -766.17805664 502.07974609 -766.01220703 502.89355469 C-760.7566405 527.50030902 -749.24418698 550.70056985 -732.5 569.5 C-731.80648437 570.30179688 -731.11296875 571.10359375 -730.3984375 571.9296875 C-720.59236006 583.09078655 -710.22719888 593.20282083 -698.33886719 602.11425781 C-696.45370446 603.53488761 -694.58930962 604.97982224 -692.7265625 606.4296875 C-619.45360959 663.03124455 -524.76491984 694.97722771 -394.19824219 744.49707031 C-363.20551915 756.16640396 -332.65107697 768.79371816 -302.5 782.5 C-300.90406006 783.22074707 -300.90406006 783.22074707 -299.27587891 783.95605469 C-270.32863352 797.05588773 -241.55579037 810.93417041 -214.11865234 826.98339844 C-211.32006976 828.60420722 -208.50149591 830.18481114 -205.67578125 831.7578125 C-187.9797114 841.61130594 -171.04794243 852.42001697 -154.1875 863.625 C-153.56132782 864.04057159 -152.93515564 864.45614319 -152.29000854 864.88430786 C-139.61502348 873.3070345 -127.21347458 882.06426004 -115.125 891.3125 C-114.23216309 891.99481689 -113.33932617 892.67713379 -112.41943359 893.38012695 C-95.02377447 906.72923552 -78.3025758 920.82644501 -62.29980469 935.81787109 C-60.28148764 937.70422547 -58.25392008 939.58039821 -56.2265625 941.45703125 C-49.31055893 947.88313863 -42.52529325 954.27614648 -36.3359375 961.4140625 C-34.62990617 963.35240448 -32.85827836 965.14648964 -31 966.9375 C-27.2697617 970.59897815 -24.06693384 974.63982397 -20.796875 978.7109375 C-18.734901 981.21476307 -16.59542403 983.57516917 -14.375 985.9375 C-7.81409524 993.14992318 -2.15490413 1001.09025247 3.61425781 1008.93798828 C5.36643912 1011.31854119 7.1311623 1013.68923979 8.8984375 1016.05859375 C58.94809806 1083.65081442 87.16474836 1164.97696014 97.75 1247.875 C97.90114258 1249.04740234 98.05228516 1250.21980469 98.20800781 1251.42773438 C98.6916263 1255.44733548 99.1142059 1259.47007482 99.5 1263.5 C99.6308046 1264.85576645 99.6308046 1264.85576645 99.76425171 1266.23892212 C101.4863353 1284.75079991 101.84545205 1303.17414161 101.81567383 1321.74829102 C101.81106413 1324.85846506 101.81790801 1327.96824588 101.83618164 1331.07836914 C101.93661103 1348.36715246 101.58676733 1365.51629527 100.12109375 1382.75 C100.05952906 1383.4757617 99.99796436 1384.2015234 99.93453407 1384.94927788 C93.63467503 1457.52618646 73.28099503 1527.52356513 40.5 1592.5 C40.03996582 1593.41587891 39.57993164 1594.33175781 39.10595703 1595.27539062 C21.89420376 1629.34697188 -0.03694769 1661.57965247 -24.94140625 1690.50390625 C-27.41324583 1693.39841153 -29.80538067 1696.34401283 -32.1875 1699.3125 C-35.38168295 1703.24117422 -38.71054268 1706.87089272 -42.3828125 1710.35546875 C-44.24215847 1712.23882841 -45.95805576 1714.1674722 -47.68359375 1716.171875 C-51.73659455 1720.83875451 -56.0572057 1725.2043844 -60.4375 1729.5625 C-61.19740234 1730.32626953 -61.95730469 1731.09003906 -62.74023438 1731.87695312 C-66.92462751 1736.05419956 -71.19479818 1740.06330323 -75.67553711 1743.9206543 C-78.28148689 1746.17649387 -80.7903985 1748.52574182 -83.3125 1750.875 C-88.8566527 1755.99005227 -94.60979204 1760.78627538 -100.5 1765.5 C-101.63083957 1766.42240375 -102.76101515 1767.34562196 -103.890625 1768.26953125 C-128.71635317 1788.48831934 -155.73660084 1806.57018081 -183.5 1822.5 C-184.4192627 1823.03222168 -185.33852539 1823.56444336 -186.28564453 1824.11279297 C-235.13653774 1852.31880329 -286.84745254 1873.36002345 -340.5 1890.5 C-341.75103516 1890.9017041 -343.00207031 1891.3034082 -344.29101562 1891.71728516 C-432.05058017 1919.6570163 -524.93109119 1932.4574765 -1226.375 1827 C-1227.28824539 1826.56281143 -1227.28824539 1826.56281143 -1228.21994019 1826.11679077 C-1234.89936192 1822.90968984 -1241.3092242 1819.57648136 -1247.5 1815.5 C-1244.07628302 1799.27634691 -1239.97959815 1783.21843547 -1235.93041992 1767.14263916 C-1234.30211061 1760.67789332 -1232.67685793 1754.21238271 -1231.0546875 1747.74609375 C-1230.85819422 1746.9629694 -1230.66170094 1746.17984505 -1230.45925331 1745.37298965 C-1225.96412828 1727.44501824 -1221.54865493 1709.49743978 -1217.12890625 1691.55078125 C-1210.64668433 1665.22994138 -1204.13717821 1638.91603813 -1197.59765625 1612.609375 C-1197.18131784 1610.93439351 -1196.76498179 1609.25941144 -1196.34864807 1607.58442879 C-1192.99534623 1594.09400335 -1189.64041698 1580.60398269 -1186.28503418 1567.11407471 C-1183.96107729 1557.77080319 -1181.6375952 1548.42741406 -1179.31528509 1539.08373308 C-1178.29883674 1534.99436089 -1177.28195218 1530.90509817 -1176.26405716 1526.81608582 C-1172.44277849 1511.46538173 -1168.63000576 1496.11364716 -1164.93310547 1480.73242188 C-1164.66907519 1479.6371027 -1164.40504492 1478.54178352 -1164.13301373 1477.41327286 C-1162.94996546 1472.50392009 -1161.77439474 1467.59308487 -1160.61573792 1462.67791748 C-1160.22127208 1461.03292419 -1159.82651419 1459.3880009 -1159.43139648 1457.74316406 C-1159.26172049 1457.00804344 -1159.09204449 1456.27292282 -1158.91722679 1455.51552582 C-1158.50734843 1453.82726476 -1158.01247075 1452.15999982 -1157.5 1450.5 C-1156.84 1450.17 -1156.18 1449.84 -1155.5 1449.5 C-1153.1374181 1450.52707542 -1150.90179329 1451.61729532 -1148.625 1452.8125 C-1147.16801277 1453.55851318 -1145.71089402 1454.30426957 -1144.25366211 1455.04980469 C-1143.48037567 1455.44889038 -1142.70708923 1455.84797607 -1141.91036987 1456.25915527 C-1070.59673745 1492.97100838 -993.54430061 1519.32142421 -913.5 1539.5 C-912.73212158 1539.69400391 -911.96424316 1539.88800781 -911.1730957 1540.08789062 C-819.31878631 1563.2537795 -723.78679745 1575.06628798 -464.5 1533.5 C-463.70948242 1533.12407715 -462.91896484 1532.7481543 -462.10449219 1532.36083984 C-445.42557068 1524.28717864 -429.34469394 1513.82837032 -415.5 1501.5 C-414.54351563 1500.66339844 -413.58703125 1499.82679687 -412.6015625 1498.96484375 C-382.99228369 1472.72253834 -363.15355105 1438.41895827 -355.5 1399.5 C-355.25660889 1398.29150391 -355.25660889 1398.29150391 -355.00830078 1397.05859375 C-347.45064302 1357.68701852 -352.27861499 1314.64999105 -369.5 1278.5 C-369.81163086 1277.8409668 -370.12326172 1277.18193359 -370.44433594 1276.50292969 C-383.39144559 1249.60856329 -404.96566132 1225.60067519 -428.5 1207.5 C-429.3971875 1206.77425781 -430.294375 1206.04851562 -431.21875 1205.30078125 C-446.61699484 1193.04296792 -463.41016626 1182.24661747 -480.5 1172.5 C-481.13905273 1172.13310059 -481.77810547 1171.76620117 -482.43652344 1171.38818359 C-487.75021072 1168.34941067 -493.11222205 1165.40514528 -498.5 1162.5 C-499.4585791 1161.98308594 -500.4171582 1161.46617188 -501.40478516 1160.93359375 C-555.22326647 1132.09404652 -612.69643996 1110.75152697 -670.15611267 1090.45245361 C-723.33905167 1071.65495863 -775.52682438 1050.68760528 -826.5 1026.5 C-827.46936493 1026.04077148 -827.46936493 1026.04077148 -828.45831299 1025.57226562 C-848.45175544 1016.09489785 -868.1131579 1006.1703664 -887.5 995.5 C-889.11575928 994.61465576 -889.11575928 994.61465576 -890.76416016 993.71142578 C-921.72934364 976.71176046 -951.77610942 958.06904979 -980.5 937.5 C-982.08200398 936.37496165 -983.66403511 935.24996148 -985.24609375 934.125 C-994.53399685 927.49397536 -1003.59269417 920.63258411 -1012.5 913.5 C-1013.36753906 912.81550781 -1014.23507813 912.13101563 -1015.12890625 911.42578125 C-1020.37926643 907.27100185 -1025.50763488 902.98593196 -1030.60253906 898.64331055 C-1034.12838341 895.64218256 -1037.70246719 892.71252636 -1041.3125 889.8125 C-1045.24117422 886.61831705 -1048.87089272 883.28945732 -1052.35546875 879.6171875 C-1054.14042683 877.85498845 -1055.95133627 876.25171616 -1057.859375 874.62890625 C-1063.74087848 869.52105244 -1069.18587851 863.96317427 -1074.68188477 858.44848633 C-1076.55829475 856.56671726 -1078.43998969 854.69035262 -1080.32226562 852.81445312 C-1086.26149997 846.87885793 -1092.0870688 840.92620718 -1097.5 834.5 C-1098.53286517 833.31960592 -1099.56802744 832.14121792 -1100.60546875 830.96484375 C-1117.30116501 811.89782809 -1132.83665858 791.86292869 -1146.5 770.5 C-1146.98791016 769.74058105 -1147.47582031 768.98116211 -1147.97851562 768.19873047 C-1198.72058809 688.84710221 -1224.06970636 598.163235 -1223.81785583 504.20484924 C-1223.812414 502.09160178 -1223.81004773 499.97836553 -1223.8079834 497.8651123 C-1223.77564927 476.61247595 -1223.17409925 455.60463677 -1220.5 434.5 C-1220.36078125 433.32501953 -1220.2215625 432.15003906 -1220.078125 430.93945312 C-1208.97909912 338.39618642 -1173.32723962 249.74982112 -1101.5 156.5 C-1101.08572754 156.00081055 -1100.67145508 155.50162109 -1100.24462891 154.98730469 C-1089.0934573 141.55305352 -1077.1501046 128.98102303 -1064.78955078 116.65917969 C-1062.73482492 114.60986489 -1060.68556897 112.55518737 -1058.63671875 110.5 C-1057.30500835 109.16894975 -1055.97298812 107.83820939 -1054.640625 106.5078125 C-1054.04147278 105.90663605 -1053.44232056 105.30545959 -1052.82501221 104.68606567 C-1048.544396 100.42866129 -1044.07440293 96.43808157 -1039.5 92.5 C-1038.41702067 91.55055951 -1037.33481588 90.60023361 -1036.25390625 89.6484375 C-1027.93642591 82.39504643 -1019.30131078 75.64619838 -1010.48828125 69.0078125 C-1008.67772303 67.63477621 -1006.88208987 66.2455366 -1005.09375 64.84375 C-937.58177103 11.9448878 -856.15179933 -24.5249004 0 0 Z " fill="#BC222F" transform="translate(3658.5,1029.5)"/>
<path d="M0 0 C396 0 792 0 1200 0 C1200 120.45 1200 240.9 1200 365 C950.85 365 701.7 365 445 365 C445 513.17 445 661.34 445 814 C677.98 814 910.96 814 1151 814 C1151 933.79 1151 1053.58 1151 1177 C918.02 1177 685.04 1177 445 1177 C445 1437.7 445 1698.4 445 1967 C298.15 1967 151.3 1967 0 1967 C0 1317.89 0 668.78 0 0 Z " fill="#BC222F" transform="translate(196,971)"/>
<path d="M0 0 C499.29 0 998.58 0 1513 0 C1513 123.42 1513 246.84 1513 374 C1335.79 374 1158.58 374 976 374 C976 899.69 976 1425.38 976 1967 C829.15 1967 682.3 1967 531 1967 C531 1441.31 531 915.62 531 374 C355.77 374 180.54 374 0 374 C0 250.58 0 127.16 0 0 Z " fill="#BC222F" transform="translate(3876,971)"/>
<path d="M0 0 C146.85 0 293.7 0 445 0 C445 649.11 445 1298.22 445 1967 C298.15 1967 151.3 1967 0 1967 C0 1317.89 0 668.78 0 0 Z " fill="#BC222F" transform="translate(1696,971)"/>
<path d="M0 0 C0.89895996 0.44698242 1.79791992 0.89396484 2.72412109 1.35449219 C23.31489783 11.59910432 42.68662803 24.11378867 61 38 C61.62551758 38.4738916 62.25103516 38.9477832 62.89550781 39.43603516 C69.45939853 44.44034544 75.84558247 49.64366731 82.125 55 C82.63836914 55.43771729 83.15173828 55.87543457 83.68066406 56.32641602 C93.35587454 64.67615261 102.63089595 73.44414059 111.66479492 82.47949219 C113.19237416 84.00486713 114.72783582 85.52200672 116.26367188 87.0390625 C122.62840329 93.36816876 128.40059951 99.97344133 134 107 C134.93480613 108.10180559 135.87615116 109.1981494 136.828125 110.28515625 C195.38260691 177.43392502 227.91249384 266.8024063 235.1875 385.3125 C235.18656342 386.08890839 235.18562683 386.86531677 235.18466187 387.66525269 C235.06124581 435.41753822 227.18051038 481.73558414 212 527 C211.51128418 528.46590576 211.51128418 528.46590576 211.01269531 529.96142578 C194.33112251 579.39246975 167.55175618 625.153777 134 665 C133.55188965 665.53834473 133.1037793 666.07668945 132.64208984 666.63134766 C125.499054 675.20540794 117.99254302 683.21626072 110 691 C107.25765106 693.72474156 104.53823821 696.47004503 101.8359375 699.234375 C95.72974547 705.45499761 89.60321903 711.39973047 82.75 716.80859375 C80.28520986 718.77272339 77.89960216 720.80601158 75.5234375 722.87573242 C55.04632266 740.61983332 31.67516612 754.97113006 8 768 C7.16952148 768.46116211 6.33904297 768.92232422 5.48339844 769.39746094 C-45.62746102 797.62764556 -103.05151584 813.46101805 -161 819 C-161.98339355 819.09571289 -162.96678711 819.19142578 -163.97998047 819.29003906 C-237.87060505 825.53620912 -312.52984434 812.52170151 -380 782 C-380.99612305 781.55011719 -381.99224609 781.10023438 -383.01855469 780.63671875 C-416.34639727 765.44491399 -447.11090801 745.80471239 -475.26904297 722.42675781 C-476.79202839 721.17142258 -478.33405915 719.93926912 -479.87890625 718.7109375 C-491.48550302 709.47409297 -502.05797254 699.01526281 -512.5625 688.5625 C-513.52579224 687.60621704 -513.52579224 687.60621704 -514.50854492 686.63061523 C-518.87329333 682.25105369 -522.97497648 677.69210742 -527 673 C-527.45221924 672.48010498 -527.90443848 671.96020996 -528.37036133 671.42456055 C-536.33251648 662.2675432 -543.78704044 652.75540287 -551 643 C-551.55558594 642.24895996 -552.11117188 641.49791992 -552.68359375 640.72412109 C-598.28454253 578.54938637 -625.81768802 503.64428601 -633 427 C-633.08619598 426.10908661 -633.17239197 425.21817322 -633.26119995 424.30026245 C-633.93212947 416.9209907 -634.17383042 409.60288087 -634.203125 402.1953125 C-634.21013931 401.0056337 -634.21715363 399.8159549 -634.22438049 398.59022522 C-634.24180169 394.76844461 -634.24823345 390.94681887 -634.25 387.125 C-634.25067474 385.82043854 -634.25134949 384.51587708 -634.25204468 383.17178345 C-634.23647482 364.25440911 -633.88834229 345.72673761 -631 327 C-630.73461426 325.21335937 -630.73461426 325.21335937 -630.46386719 323.390625 C-623.96417144 280.46344618 -611.20889874 239.37272156 -593 200 C-592.60087402 199.13697266 -592.20174805 198.27394531 -591.79052734 197.38476562 C-581.90003323 176.27276718 -569.76139844 155.81732615 -556 137 C-555.53174805 136.35595215 -555.06349609 135.7119043 -554.58105469 135.04833984 C-544.62929631 121.41529392 -534.18692423 108.15847724 -522.6328125 95.84375 C-520.5989975 93.6469884 -518.63032143 91.4257653 -516.67578125 89.16015625 C-512.97314227 84.91065054 -509.0583254 80.91020587 -505.0625 76.9375 C-504.39798828 76.26912109 -503.73347656 75.60074219 -503.04882812 74.91210938 C-499.12967483 71.0005587 -495.10697166 67.2665846 -490.91381836 63.65063477 C-489.13820303 62.11919769 -487.38647606 60.5651833 -485.640625 59 C-476.29869423 50.6983519 -466.49702434 43.13049333 -456.40771484 35.76074219 C-454.22806638 34.16678308 -452.06078563 32.55738407 -449.89453125 30.9453125 C-390.64278967 -12.57775831 -318.55165908 -37.48829341 -246 -46 C-245.05463379 -46.11859375 -244.10926758 -46.2371875 -243.13525391 -46.359375 C-159.88248531 -56.55916725 -74.22554796 -37.52964311 0 0 Z M-228.9375 -3.4375 C-229.59919189 -3.16719971 -230.26088379 -2.89689941 -230.94262695 -2.6184082 C-246.65980338 3.94623334 -259.68552393 13.31043764 -272 25 C-272.73621582 25.68739258 -272.73621582 25.68739258 -273.48730469 26.38867188 C-292.52912803 44.25595284 -306.33791792 66.35609577 -319 89 C-319.3904248 89.69287109 -319.78084961 90.38574219 -320.18310547 91.09960938 C-341.98037722 128.82241327 -341.98037722 128.82241327 -352 170 C-320.95430967 175.68957554 -289.64239704 179.29980407 -258.1875 181.8125 C-257.03944382 181.90751801 -257.03944382 181.90751801 -255.86819458 182.00445557 C-243.18112915 183.03809296 -230.79431943 183 -218 183 C-218 120.63 -218 58.26 -218 -6 C-222.21030216 -6 -225.12986053 -5.00146471 -228.9375 -3.4375 Z M-178 -6 C-178 56.7 -178 119.4 -178 184 C-151.42847344 183.40652024 -151.42847344 183.40652024 -124.9375 181.8125 C-124.20991486 181.75230682 -123.48232971 181.69211365 -122.73269653 181.63009644 C-109.74336238 180.54048151 -96.84062025 178.89859675 -83.9375 177.0625 C-82.65237015 176.88069687 -82.65237015 176.88069687 -81.34127808 176.69522095 C-68.79894067 174.90147085 -56.40126188 172.59001702 -44 170 C-59.22352165 110.27467747 -94.92326285 38.54174629 -149.4375 5.1875 C-158.36249536 -0.11073046 -167.72294453 -4.28715742 -178 -6 Z M-87 8 C-83.729989 12.5195274 -80.30041182 16.80307704 -76.625 21 C-42.10106083 61.5360058 -23.03495708 113.37287964 -6 163 C5.05647564 161.42330732 15.76016798 158.22889446 26.5 155.25 C27.5176947 154.96909515 28.5353894 154.68819031 29.58392334 154.39877319 C48.82108264 149.07216285 67.81965672 143.10152588 86.7578125 136.80078125 C87.52340485 136.54611588 88.28899719 136.2914505 89.07778931 136.02906799 C92.76569536 134.79045321 96.40713184 133.49327202 100 132 C98.51151188 128.60655558 96.5673138 126.21770033 94.0625 123.5 C93.26199219 122.62730469 92.46148438 121.75460938 91.63671875 120.85546875 C90.76660156 119.91316406 89.89648438 118.97085938 89 118 C88.06811383 116.97607569 87.13714077 115.95131969 86.20703125 114.92578125 C79.49285971 107.53393712 72.72071308 100.38589079 65.14453125 93.8671875 C62.84892571 91.86846355 60.615204 89.81054771 58.375 87.75 C24.61063071 57.33629331 -40.36590931 8 -87 8 Z M-315.46069336 8.61401367 C-318.95781765 9.79190909 -322.45372917 10.97070389 -325.9375 12.1875 C-326.58392456 12.41174652 -327.23034912 12.63599304 -327.8963623 12.86703491 C-365.11065349 25.84284487 -401.21134439 44.26747453 -432.26660156 68.64746094 C-433.94194484 69.95470062 -435.6341552 71.23525416 -437.3359375 72.5078125 C-458.95546735 88.73058753 -482.07124391 108.03762419 -498 130 C-498 130.66 -498 131.32 -498 132 C-446.22329266 153.23565493 -446.22329266 153.23565493 -392 163 C-391.63350342 161.92443848 -391.26700684 160.84887695 -390.8894043 159.74072266 C-383.63706913 138.50941056 -376.32920004 117.42778847 -367 97 C-366.52353027 95.95360352 -366.04706055 94.90720703 -365.55615234 93.82910156 C-356.8186407 74.79946336 -347.1897992 56.07841659 -335 39 C-334.49210937 38.28602051 -333.98421875 37.57204102 -333.4609375 36.83642578 C-326.47587507 27.05853444 -319.40034749 17.61325953 -311 9 C-313.01647515 7.72073972 -313.01647515 7.72073972 -315.46069336 8.61401367 Z M-525 164 C-526.71349757 165.99750269 -528.04965096 167.84938963 -529.4375 170.0625 C-529.86434082 170.72515869 -530.29118164 171.38781738 -530.73095703 172.07055664 C-567.10286462 229.44824794 -593 298.42702802 -593 367 C-536.57 367 -480.14 367 -422 367 C-421.36061969 360.60619686 -420.82090688 354.35309706 -420.60546875 347.953125 C-420.53951193 346.22311167 -420.47266059 344.49313227 -420.4050293 342.76318359 C-420.37017426 341.86525085 -420.33531921 340.96731812 -420.29940796 340.04217529 C-418.67955538 299.62581526 -413.82817087 259.6600275 -405.32299805 220.11230469 C-405.17636215 219.42751541 -405.02972626 218.74272614 -404.87864685 218.03718567 C-404.48192008 216.19248516 -404.07955863 214.34899897 -403.67675781 212.50561523 C-402.93702344 208.67378049 -402.44566142 204.87613751 -402 201 C-403.25506348 200.6690332 -404.51012695 200.33806641 -405.80322266 199.99707031 C-487.5102517 178.39669373 -487.5102517 178.39669373 -518.57983398 164.87744141 C-521.19769369 163.77277041 -521.19769369 163.77277041 -525 164 Z M119.12890625 165.89453125 C117.44069941 166.52174742 115.75229534 167.1484329 114.0637207 167.7746582 C113.16787262 168.10696442 112.27202454 168.43927063 111.34902954 168.78164673 C81.90614494 179.67379535 52.41342476 189.21715589 21.99609375 197.00390625 C21.31938629 197.17734558 20.64267883 197.35078491 19.94546509 197.52947998 C14.98489895 198.78546893 9.99986497 199.91174809 5 201 C5.24645264 202.23000732 5.49290527 203.46001465 5.74682617 204.72729492 C11.06779287 231.39249566 15.88779954 257.9825153 19 285 C19.14630859 286.24297852 19.29261719 287.48595703 19.44335938 288.76660156 C22.43468222 314.76864026 23.46251785 340.8628034 25 367 C81.1 367 137.2 367 195 367 C195 316.16878824 180.08642074 264.89499292 159 219 C158.2757832 217.38813694 157.55181653 215.77616146 156.828125 214.1640625 C148.7783963 196.48041849 139.30737208 178.83580993 128 163 C125.13861917 163 121.82897887 164.88437223 119.12890625 165.89453125 Z M-364 208 C-376.62197664 260.08113555 -381.860262 312.50655009 -384 366 C-329.22 366 -274.44 366 -218 366 C-218 318.81 -218 271.62 -218 223 C-232.85 222.34 -247.7 221.68 -263 221 C-294.48183092 218.35287908 -325.75450313 214.69233543 -356.75756836 208.55297852 C-360.10897014 207.88792198 -360.10897014 207.88792198 -364 208 Z M-45.671875 212.07421875 C-47.44658276 212.33054272 -49.22132388 212.58663576 -50.99609375 212.8425293 C-51.93179199 212.98040863 -52.86749023 213.11828796 -53.83154297 213.26034546 C-88.21232717 218.29242506 -122.54928026 221.25127587 -157.24414062 223.04956055 C-158.32978806 223.10672241 -159.41543549 223.16388428 -160.53398132 223.22277832 C-162.57758075 223.32941419 -164.6213711 223.43247193 -166.6653595 223.53137207 C-167.57541245 223.57862427 -168.48546539 223.62587646 -169.4230957 223.67456055 C-170.60993706 223.73307442 -170.60993706 223.73307442 -171.820755 223.79277039 C-174.33014565 223.97656439 -174.33014565 223.97656439 -178 225 C-178 271.86 -178 318.72 -178 367 C-138.85964766 367.83610684 -138.85964766 367.83610684 -99.71875 368.31640625 C-97.1641824 368.33713203 -94.60961701 368.35813037 -92.05505371 368.37937927 C-85.52583677 368.43299712 -78.99659803 368.48306953 -72.46734619 368.53222656 C-66.39615662 368.5785537 -60.32499157 368.62782429 -54.25382519 368.67708123 C-40.50257924 368.78857264 -26.75130336 368.8958467 -13 369 C-12.95064965 360.40360965 -12.90791089 351.84173957 -13.515625 343.26171875 C-13.57114029 342.42526321 -13.62665558 341.58880768 -13.68385315 340.727005 C-13.86507736 338.04658577 -14.05613684 335.36703318 -14.25 332.6875 C-14.3498671 331.28745728 -14.3498671 331.28745728 -14.45175171 329.85913086 C-17.32251305 289.99914453 -23.18693411 250.97868854 -32 212 C-36.69011578 210.64150387 -40.94262731 211.34864137 -45.671875 212.07421875 Z M-384 405 C-381.36184516 459.08217423 -376.15360671 510.48602022 -364 563 C-363.13178619 562.88177887 -363.13178619 562.88177887 -362.24603271 562.76116943 C-314.14380908 556.226656 -266.59474909 552.03717182 -218 549 C-218 501.48 -218 453.96 -218 405 C-272.78 405 -327.56 405 -384 405 Z M24 405 C23.3618056 411.38194395 22.82132862 417.62367081 22.60546875 424.01171875 C22.53967765 425.73571009 22.47298841 427.45966733 22.40551758 429.18359375 C22.37068268 430.07933105 22.33584778 430.97506836 22.29995728 431.89794922 C20.47987264 477.04592662 14.7427463 521.74973066 4.43969727 565.77148438 C3.90321343 568.11196314 3.90321343 568.11196314 4 571 C5.11294434 571.29543701 6.22588867 571.59087402 7.37255859 571.89526367 C42.76905509 581.31593984 78.11714046 591.12050423 112.42529297 604.03564453 C116.93730297 605.72561604 121.46958621 607.36013696 126 609 C131.45926333 601.75397227 136.36142277 594.36737093 140.875 586.5 C141.47940918 585.45102539 142.08381836 584.40205078 142.70654297 583.32128906 C144.48302265 580.22081591 146.2451025 577.11273144 148 574 C148.46728516 573.17435547 148.93457031 572.34871094 149.41601562 571.49804688 C177.36197132 521.67028065 194 462.15471132 194 405 C137.9 405 81.8 405 24 405 Z M-593 407 C-593 416.42102591 -592.5301701 425.16063717 -591.375 434.4375 C-591.28697113 435.15242615 -591.19894226 435.86735229 -591.10824585 436.60394287 C-583.42509197 498.18662987 -560.84006817 558.61264494 -526 610 C-521.52850076 609.27365959 -517.40683884 607.79214208 -513.17578125 606.2265625 C-511.59116543 605.64832345 -510.00644397 605.07037387 -508.42163086 604.49267578 C-507.58953094 604.18815491 -506.75743103 603.88363403 -505.90011597 603.56988525 C-478.09579398 593.41695137 -450.18586941 584.23458375 -421.50244141 576.90283203 C-415.32392147 575.31018135 -409.16268018 573.65274568 -403 572 C-403.18062988 571.14921875 -403.36125977 570.2984375 -403.54736328 569.421875 C-414.91830179 515.40452973 -419.74146965 462.39501603 -423 407 C-479.1 407 -535.2 407 -593 407 Z M-180 407 C-180 454.52 -180 502.04 -180 551 C-167.13 551.33 -154.26 551.66 -141 552 C-134.3156062 552.34542258 -127.66556395 552.70631752 -121 553.25 C-120.20554474 553.3118045 -119.41108948 553.37360901 -118.59255981 553.43728638 C-94.16937142 555.3509179 -69.70882294 558.27575581 -45.63061523 562.83178711 C-44.81149658 562.98655518 -43.99237793 563.14132324 -43.1484375 563.30078125 C-42.45927246 563.43653564 -41.77010742 563.57229004 -41.06005859 563.7121582 C-38.68734773 564.04368535 -36.39268603 564.04666494 -34 564 C-21.44988168 512.21536816 -16.21571615 460.17718763 -14 407 C-68.78 407 -123.56 407 -180 407 Z M-249.73828125 589.69921875 C-250.73656952 589.77433182 -251.73485779 589.84944489 -252.76339722 589.92683411 C-255.94728981 590.17060623 -259.12988613 590.42759919 -262.3125 590.6875 C-263.96652328 590.81946777 -263.96652328 590.81946777 -265.65396118 590.95410156 C-294.62579153 593.2811269 -323.39211573 596.84309035 -352 602 C-342.24769069 651.1227432 -312.76260068 704.60501223 -278.47265625 740.45996094 C-277.46785933 741.51073331 -276.46805497 742.56629698 -275.47265625 743.62597656 C-267.67784678 751.90188711 -259.5426112 758.81762106 -250 765 C-249.01386719 765.64710938 -248.02773437 766.29421875 -247.01171875 766.9609375 C-238.77414161 772.06622888 -227.88556042 778 -218 778 C-218 715.63 -218 653.26 -218 589 C-233.91950629 588.92178123 -233.91950629 588.92178123 -249.73828125 589.69921875 Z M-178 589 C-178 651.37 -178 713.74 -178 778 C-172.44214872 777.20602125 -168.3535035 776.18132392 -163.375 773.9375 C-162.68132324 773.62804443 -161.98764648 773.31858887 -161.27294922 772.99975586 C-123.88077357 755.879157 -98.45718678 720.92705344 -79 686 C-78.46375 685.03739258 -77.9275 684.07478516 -77.375 683.08300781 C-55.01569601 644.3553441 -55.01569601 644.3553441 -44 602 C-77.71542606 596.4231208 -111.58424405 592.04943736 -145.6875 589.6875 C-146.78199463 589.61112305 -147.87648926 589.53474609 -149.00415039 589.45605469 C-158.70783545 588.86584048 -168.22452237 589 -178 589 Z M-6 609 C-6.30067383 609.90838623 -6.60134766 610.81677246 -6.91113281 611.75268555 C-24.15888751 663.68727606 -45.2778693 714.8554399 -81.37133789 756.72583008 C-83.40676418 759.08822654 -85.26692778 761.40039167 -87 764 C-79.05562987 761.99944265 -71.44701947 759.46318031 -63.8125 756.5 C-62.1250769 755.84632446 -62.1250769 755.84632446 -60.40356445 755.17944336 C-3.40931264 732.78927167 64.45031921 694.06420244 100 642 C100 641.34 100 640.68 100 640 C65.2257972 627.78588314 65.2257972 627.78588314 29.9375 617.1875 C29.23765991 616.9955304 28.53781982 616.80356079 27.81677246 616.60577393 C20.14188539 614.51401063 12.4279186 612.58769484 4.69140625 610.73828125 C3.96710922 610.56354782 3.24281219 610.38881439 2.49656677 610.20878601 C-0.4094372 609.52531753 -3.00313804 609 -6 609 Z M-403.3359375 611.1328125 C-404.18663818 611.36120316 -405.03733887 611.58959381 -405.91381836 611.8249054 C-408.73579886 612.58587945 -411.55560813 613.35449306 -414.375 614.125 C-415.34141418 614.38822052 -416.30782837 614.65144104 -417.30352783 614.92263794 C-432.75034103 619.14236893 -448.08904353 623.66911237 -463.375 628.4375 C-464.31382019 628.7297345 -465.25264038 629.02196899 -466.21990967 629.32305908 C-476.89968067 632.65613139 -487.50363458 636.12443579 -498 640 C-496.60686556 642.87758545 -495.20130535 645.11541506 -493.0625 647.5 C-492.43988281 648.19480469 -491.81726562 648.88960937 -491.17578125 649.60546875 C-490.45777344 650.39566406 -489.73976563 651.18585937 -489 652 C-488.16855469 652.92425781 -487.33710937 653.84851563 -486.48046875 654.80078125 C-477.80888961 664.39336144 -468.85990927 673.61479021 -459 682 C-458.04222656 682.84691406 -457.08445312 683.69382812 -456.09765625 684.56640625 C-415.09345136 720.65970682 -364.09555467 750.33623061 -311 764 C-314.39679454 759.34232635 -317.93612925 754.87959073 -321.6875 750.5 C-350.48782553 716.40224767 -369.32448079 673.72280621 -384 632 C-384.59482178 630.31269775 -384.59482178 630.31269775 -385.20166016 628.59130859 C-387.49491272 622.07013562 -389.76257366 615.54053424 -392 609 C-395.97136753 609 -399.53141468 610.10122973 -403.3359375 611.1328125 Z " fill="#000000" transform="translate(2150,48)"/>
</svg>
